<svg width="25.612032mm" height="25.612mm" version="1.1" viewBox="0 0 25.612032 25.612" xmlns="http://www.w3.org/2000/svg">
    <defs>
        <clipPath id="clipPath385">
            <path d="m1396.2684 724.37728-0.098-0.18359-0.1474-0.74504 1.6069-1.36398 0.4734-0.0196 0.4745 0.2836-0.4773-0.47034-1.096-0.22609-1.1061 0.71625-0.075 1.1693 0.3006 0.79854z" display="none" style="paint-order:stroke markers fill"/>
            <path class="powerclip" d="m1390.8785 716.82155h13.5377v14.09705h-13.5377zm5.3899 7.55573-0.098-0.18359-0.1474-0.74504 1.6069-1.36398 0.4734-0.0196 0.4745 0.2836-0.4773-0.47034-1.096-0.22609-1.1061 0.71625-0.075 1.1693 0.3006 0.79854z" display="block" style="paint-order:stroke markers fill"/>
        </clipPath>
        <clipPath id="clipPath382">
            <path d="m1399.06 725.88231c0.1487 0.27038 0.4395-1.02899 0.3334-1.93164-0.2357-2.00494-2.3519-2.57702-3.0943-1.78747-0.6299 0.65669-0.49 1.66327 0.01 2.26491 0.4952 0.60163 1.2521 0.61547 1.736 0.72591 0.484 0.11044 0.8424 0.40566 1.0197 0.72829z" fill="none"/>
        </clipPath>
    </defs>
    <g transform="translate(-181.76867,-170.39167)">
        <g transform="translate(-5.0339185e-6 .0329991)">
            <g>
                <path transform="translate(-1192.0575,-531.63232)" d="m1399.06 725.8823c0.1487 0.27039 0.4395-1.02898 0.3334-1.93163-0.2357-2.00493-2.3519-2.57702-3.0943-1.78748-0.6299 0.6567-0.49 1.66328 0.01 2.26491 0.4952 0.60164 1.252 0.61548 1.7359 0.72591 0.484 0.11044 0.8424 0.40566 1.0197 0.72829z" clip-path="url(#clipPath385)"/>
                <path d="m206.4479 172.04496h0.081c0.099 0.016 0.2173 0.1222 0.2583 0.2424s1.6717 8.3689-0.6551 13.117-7.4741 6.1856-10.4388 6.165c-4.9826 0.073-9.31-1.7057-11.3004-5.7598 2.1608-0.073 2.8794-2.1661 2.9145-3.9088 0.011-0.5378 0.8536-6.3886 1.047-6.6461 0.053-0.065 0.1307-0.032 0.1689 0.027 0.81 1.266 1.5553 1.9199 2.6484 2.5176 1.7368 0.7503 2.868 1.0257 5.4304 0.57 2.5627-0.4557 6.7828-1.9767 9.5501-6.1304 0.1061-0.1363 0.2093-0.186 0.2961-0.1958z" color="#000000" fill="#8c8073" stroke-linecap="round" stroke-width=".999988" style="-inkscape-stroke:none;paint-order:stroke fill markers"/>
                <ellipse cx="191.10779" cy="181.94153" rx="2.8563435" ry="3.2004485" fill="#fff"/>
                <ellipse cx="191.724" cy="182.06018" rx="1.7185632" ry="2.0892863"/>
                <ellipse cx="191.7301" cy="180.90564" rx=".7829693" ry=".78298879" fill="#fff"/>
                <ellipse transform="matrix(.97889982 -.20434075 .20194198 .97939749 0 0)" cx="143.63785" cy="216.02808" rx="2.4320455" ry="3.1360881"/>
            </g>
            <ellipse cx="183.93652" cy="180.63477" rx="1.323804" ry="1.323837" fill="#fff" style="paint-order:stroke fill markers"/>
            <path d="m200.3122 186.43436c-0.1746-0.1214 0.034-0.3108 0.4112-0.3241 0.2261-0.01 0.5127 0.048 0.8132 0.2192 0.8086 0.462 0.8362 1.0306 0.5707 1.1541-0.1857 0.086-0.9024-0.4493-0.9024-0.4493s-0.5222-0.3422-0.8927-0.5999z"/>
            <path d="m201.1061 186.57146c-1.5937 2.2126-4.031 3.5472-8.0089 2.9837-0.5193-0.069-0.9134 0.6153 1.4528 0.7119 2.9659 0.1206 5.5251-0.7637 7.267-3.1819z" color="#000000" stroke-width=".999988" style="-inkscape-stroke:none"/>
            <path d="m200.7637 188.26616c-0.6615-0.2764-1.5684 0.6625-1.2246 0.9142 0.527 0.3379 2.3644 1.513 2.7517 1.7188 0.4496 0.2388 1.0919-0.1876 1.0919-0.1876l0.2005-0.3768s-0.01-0.7713-0.4563-1.0102c-0.2907-0.1544-1.5042-0.6859-2.3554-1.0553h-0.01z" fill="#f2840d" stroke-linecap="round" stroke-linejoin="round" stroke-width=".40666"/>
            <g>
                <path d="m202.8402 190.86926c0.084 0.2969 0.3796 0.1622 0.5591 0.2618 0.1794 0.1 0.2208 0.4219 0.5173 0.3365 0.2965-0.085 0.6851-0.7845 0.601-1.0815-0.084-0.297-0.3797-0.162-0.5591-0.2617-0.1793-0.1-0.2207-0.4221-0.5172-0.3367-0.2966 0.085-0.6852 0.7846-0.6011 1.0816z" fill="#bbb"/>
                <ellipse cx="197.40088" cy="181.94885" rx="3.7499065" ry="3.8277867" fill="#fff"/>
                <ellipse cx="198.30798" cy="182.08923" rx="2.3218393" ry="2.5452883"/>
                <ellipse cx="198.30774" cy="180.70233" rx=".99682391" ry=".99685425" fill="#fff"/>
                <path transform="translate(-1192.0575,-531.63232)" d="m1397.693 722.21492c0.1266-0.20758 0.8185 0.0728 0.9692 0.18088-0.2987-0.48421-1.8637-1.10586-2.563-0.33574s-0.055 2.09042 0.2073 2.43123c-0.077-0.21189-0.2301-0.81294-0.069-0.9281 0.1606-0.11516 0.5326 0.53901 0.8382 0.35 0.3055-0.18901-0.2892-0.71221 0.01-0.95904 0.312-0.247 0.7338 0.44411 0.9975 0.13324 0.2255-0.27366-0.5053-0.68338-0.3901-0.87247z" clip-path="url(#clipPath382)" fill="#8c8073" style="paint-order:stroke markers fill"/>
            </g>
        </g>
    </g>
</svg>
