<svg version="1.0" viewBox="0 0 128 128" xmlns="http://www.w3.org/2000/svg" xmlns:xlink="http://www.w3.org/1999/xlink">
    <defs>
        <linearGradient id="linearGradient3887">
            <stop stop-color="#fff" offset="0"/>
            <stop stop-color="#fff" stop-opacity="0" offset="1"/>
        </linearGradient>
        <linearGradient id="linearGradient3770">
            <stop stop-color="#eeeeec" offset="0"/>
            <stop stop-color="#9f9f94" offset="1"/>
        </linearGradient>
        <linearGradient id="linearGradient2285">
            <stop stop-color="#5e5e5e" offset="0"/>
            <stop stop-color="#dedede" offset=".75901806"/>
            <stop stop-color="#8d8d8d" offset=".93379617"/>
            <stop stop-color="#616161" offset="1"/>
        </linearGradient>
        <linearGradient id="linearGradient2301">
            <stop stop-color="#dcdcdc" offset="0"/>
            <stop stop-color="#dcdcdc" stop-opacity="0" offset="1"/>
        </linearGradient>
        <linearGradient id="linearGradient2664">
            <stop offset="0"/>
            <stop stop-opacity="0" offset="1"/>
        </linearGradient>
        <radialGradient id="radialGradient10053" cx="21.288511" cy="62.975674" r="33.898083" fx="20.364378" fy="54.510296" gradientTransform="matrix(1.230357 .490848 -.30559 .765992 6.44469 -26.19364)" gradientUnits="userSpaceOnUse" xlink:href="#linearGradient3887"/>
        <radialGradient id="radialGradient10055" cx="45.072037" cy="48.438328" r="20.470032" fx="49.431042" fy="63.654842" gradientUnits="userSpaceOnUse" xlink:href="#linearGradient3770"/>
        <linearGradient id="linearGradient10057" x1="46.229446" x2="50.325378" y1="34.836998" y2="67.717461" gradientTransform="matrix(1.160976 .127867 -.112206 1.162701 -7.645123 -42.36726)" gradientUnits="userSpaceOnUse" xlink:href="#linearGradient3887"/>
        <linearGradient id="linearGradient10059" x1="105.21383" x2="119.67432" y1="66.387939" y2="66.387939" gradientTransform="matrix(1.120553,0,0,1.120553,-15.31808,-8.79879)" gradientUnits="userSpaceOnUse" xlink:href="#linearGradient3770"/>
        <linearGradient id="linearGradient10061" x1="-11.3125" x2="24.776604" y1="75.197922" y2="75.197922" gradientTransform="matrix(.931423 0 0 .931423 41.30228 -34.92743)" gradientUnits="userSpaceOnUse" xlink:href="#linearGradient3770"/>
        <radialGradient id="radialGradient10063" cx="58.680527" cy="7.2303805" r="55.698994" gradientTransform="matrix(1.038889 .691318 -.102656 .154268 1.697475 -11.26445)" gradientUnits="userSpaceOnUse" xlink:href="#linearGradient3887"/>
        <radialGradient id="radialGradient10065" cx="116.125" cy="65.4375" r="2.9375" fx="115.49471" fy="64.290573" gradientTransform="matrix(1,0,0,1.191489,0,-12.53059)" gradientUnits="userSpaceOnUse">
            <stop offset="0"/>
            <stop stop-opacity="0" offset="1"/>
        </radialGradient>
        <radialGradient id="radialGradient10067" cx="21.288511" cy="62.975674" r="33.898083" fx="20.364378" fy="54.510296" gradientTransform="matrix(-.149257 .05954567 .03707168 .09292389 126.4361 56.59784)" gradientUnits="userSpaceOnUse" xlink:href="#linearGradient3887"/>
        <linearGradient id="linearGradient10069" x1="-11.3125" x2="24.776604" y1="75.197922" y2="75.197922" gradientTransform="matrix(-.112993 0 0 .112993 122.2074 55.53833)" gradientUnits="userSpaceOnUse" xlink:href="#linearGradient3770"/>
        <radialGradient id="radialGradient10071" cx="58.680527" cy="7.2303805" r="55.698994" gradientTransform="matrix(-.12603 .08386505 .01245339 .01871453 127.012 58.40892)" gradientUnits="userSpaceOnUse" xlink:href="#linearGradient3887"/>
        <radialGradient id="radialGradient10073" cx="71.881821" cy="71.608231" r="1.6130873" gradientTransform="matrix(1 0 0 1.013699 0 -.980936)" gradientUnits="userSpaceOnUse" xlink:href="#linearGradient2285"/>
        <radialGradient id="radialGradient10081" cx="92.0625" cy="42.515625" r="1.96875" fx="92.07354" fy="41.43642" gradientTransform="matrix(1.213029 -3.857778e-6 .03916403 1.515872 -21.27707 -21.93227)" gradientUnits="userSpaceOnUse" xlink:href="#linearGradient3770"/>
        <radialGradient id="radialGradient10083" cx="36.747746" cy="121.95814" r="4.9659114" fx="33.78273" fy="122.4772" gradientTransform="matrix(1 0 0 .316667 0 83.33806)" gradientUnits="userSpaceOnUse" xlink:href="#linearGradient2664"/>
        <linearGradient id="linearGradient10087" x1="38.357395" x2="48.092775" y1="86.916698" y2="86.916698" gradientTransform="matrix(.540477 0 0 .09355344 48.63483 105.6998)" gradientUnits="userSpaceOnUse" xlink:href="#linearGradient2285"/>
        <linearGradient id="linearGradient10089" x1="41.109016" x2="44.111984" y1="79.413818" y2="79.413818" gradientTransform="matrix(1.514456 0 0 .837898 10.98058 49.94771)" gradientUnits="userSpaceOnUse" spreadMethod="reflect" xlink:href="#linearGradient2301"/>
        <linearGradient id="linearGradient10091" x1="38.357395" x2="48.092775" y1="86.916698" y2="86.916698" gradientTransform="matrix(.540477 0 0 .540477 -2.804764 82.82737)" gradientUnits="userSpaceOnUse" xlink:href="#linearGradient2285"/>
        <linearGradient id="linearGradient10093" x1="41.109016" x2="44.111984" y1="79.413818" y2="79.413818" gradientTransform="matrix(1.514457,0,0,1.445422,-40.35187,34.23177)" gradientUnits="userSpaceOnUse" spreadMethod="reflect" xlink:href="#linearGradient2301"/>
        <linearGradient id="linearGradient10095" x1="38.357395" x2="48.092775" y1="86.916698" y2="86.916698" gradientTransform="matrix(.540477 0 0 .540477 -127.2611 10.54281)" gradientUnits="userSpaceOnUse" xlink:href="#linearGradient2285"/>
        <linearGradient id="linearGradient10097" x1="41.109016" x2="44.111984" y1="79.413818" y2="79.413818" gradientTransform="matrix(1.514457,0,0,1.445422,-164.8738,-38.46197)" gradientUnits="userSpaceOnUse" spreadMethod="reflect" xlink:href="#linearGradient2301"/>
        <linearGradient id="linearGradient10099" x1="65.788818" x2="65.09919" y1="122.79063" y2="106.68057" gradientTransform="matrix(1.286851,0,0,1.286851,-11.51164,-38.10921)" gradientUnits="userSpaceOnUse">
            <stop offset="0"/>
            <stop stop-opacity="0" offset="1"/>
        </linearGradient>
        <radialGradient id="radialGradient10101" cx="64.63961" cy="122.04091" r="3.7244337" gradientTransform="matrix(1 0 0 .844444 0 18.98414)" gradientUnits="userSpaceOnUse">
            <stop offset="0"/>
            <stop stop-opacity="0" offset="1"/>
        </radialGradient>
        <radialGradient id="radialGradient10103" cx="71.993324" cy="91.360512" r="1.2120775" gradientTransform="matrix(1.27094 .201737 -.414722 2.612754 18.29114 -164.7345)" gradientUnits="userSpaceOnUse">
            <stop stop-color="#656565" offset="0"/>
            <stop stop-color="#656565" stop-opacity="0" offset="1"/>
        </radialGradient>
        <radialGradient id="radialGradient10105" cx="72.915199" cy="90.395607" r="1.2120775" gradientTransform="matrix(1.114143 .64395 -.838953 1.451529 67.68717 -91.71487)" gradientUnits="userSpaceOnUse">
            <stop stop-color="#a5a5a5" offset="0"/>
            <stop stop-color="#a5a5a5" stop-opacity="0" offset="1"/>
        </radialGradient>
        <radialGradient id="radialGradient10107" cx="72.249008" cy="89.825218" r="1.2120775" gradientTransform="matrix(.874459 .23431 -.534303 1.994044 57.13836 -110.7997)" gradientUnits="userSpaceOnUse">
            <stop stop-color="#fff" offset="0"/>
            <stop stop-color="#fff" stop-opacity="0" offset="1"/>
        </radialGradient>
        <radialGradient id="radialGradient11015" cx="37.298531" cy="65.512085" r="17.969616" gradientTransform="matrix(-.14309 .169755 -.805092 -.678625 139.9553 88.28146)" gradientUnits="userSpaceOnUse">
            <stop stop-color="#fff" offset="0"/>
            <stop stop-color="#fff" stop-opacity="0" offset="1"/>
        </radialGradient>
    </defs>
    <path d="m50.892799 3.2812959v-2.7947084 2.7947084z" fill="#fff" fill-opacity=".75688076"/>
    <g transform="matrix(.983225 .133307 -.133307 .983225 6.038054 -5.426873)">
        <path d="m37.811106 2.1872674c-10.306177-0.4242433-22.081102 10.463284-26.517888 24.158747-4.127592 12.741036 0.887735 24.596441 10.654362 28.350533l90.32594 22.352086c0.22985 0.063413 0.4731 0.088832 0.7221 0.116257 7.30848 0.069904 11.70881-9.281571 6.04053-14.231294l-73.753411-58.657677c-1.691948-1.1770248-4.210118-1.7294374-6.45578-1.9767687-0.329362-0.0362749-0.683396-0.0981983-1.015853-0.1118829z"/>
        <path d="m37.90441 2.7178301c-10.064707 0.2658617-21.264364 10.88877-25.5625 24.15625-4.127592 12.741036 0.889623 24.589658 10.65625 28.34375l55.6875 13.78125v-38.46875l-32.34375-25.71875c-1.691947-1.1770248-4.223088-1.7214187-6.46875-1.96875-0.329361-0.0362748-0.667543-0.1113154-1-0.125-0.322068-0.0132576-0.644082-0.0085762-0.96875 0z" fill="url(#radialGradient10053)" opacity=".87000002"/>
        <path transform="matrix(.842901 .09283444 -.366665 1.134676 12.01036 -27.68145)" d="m68.70079 47.24152a20.470032 20.470032 0 1 1-40.940063 0 20.470032 20.470032 0 1 1 40.940063 0z" opacity=".15"/>
        <path transform="matrix(.874568 .09632247 -.380036 1.173095 10.30427 -29.96168)" d="m68.70079 47.24152a20.470032 20.470032 0 1 1-40.940063 0 20.470032 20.470032 0 1 1 40.940063 0z" fill="url(#radialGradient10055)"/>
        <path d="m42.310316 6.0978151c-8.171788-0.9000193-17.440622 5.7090009-22.836927 15.514622-1.240134 5.076567-1.011108 8.873217 2.717733 11.352228 7.831308 5.206421 23.606046 0.648208 31.326994-11.164532 0.17084-0.261378 0.316542-0.528514 0.479736-0.791737-0.429716-8.128241-4.718913-14.143075-11.687536-14.910581z" fill="url(#linearGradient10057)"/>
        <path d="m44.742045 4.4561673 29.43234 24.224081-16.415344 33.915712-38.476039-9.755249c0.926082 0.325016 1.902535 0.540026 2.943444 0.654668 10.539629 1.160807 22.803901-9.359053 27.383813-23.496301 3.604076-11.125055 1.380707-21.195765-4.868214-25.542911z"/>
        <path d="m109.05784 54.911949c5.9382 6.708547 1.69767 17.310779-6.4782 19.819789l5.74284 1.435709c0.25755 0.071058 0.52638 0.074321 0.80539 0.105052 8.18955 0.078331 13.10995-10.38644 6.75834-15.932869l-6.82837-5.427681z" fill="url(#linearGradient10059)"/>
        <path d="m54.487744 11.701957 1.309814 1.076959c-0.414691-0.387357-0.846829-0.754876-1.309814-1.076959zm1.309814 1.076959c4.798569 4.482279 6.320765 13.165565 3.230874 22.703442-4.265836 13.167761-15.709964 22.969642-25.526818 21.888446-0.334094-0.036796-0.640158-0.115277-0.96053-0.174642l4.919079 1.2516c9.753624 1.028599 21.084709-8.284321 25.323069-20.811488 3.068271-9.068787 1.559565-17.331045-3.201767-21.597377l-1.309814-1.047851c0.462984 0.308399 0.895442 0.676559 1.309814 1.047851l-3.783907-3.259981zm-23.256474 44.417246-1.775526-0.436605c0.565336 0.19841 1.166189 0.323695 1.775526 0.436605z" fill="url(#linearGradient10061)"/>
        <path d="m45.6875 4.875c9.542644 6.243613 8.726336 21.892976 1.09375 34.9375-17.360583 29.606131-56.949298-1.794469-24.84375 14.875l90.34375 22.375c0.22985 0.063416 0.46975 0.066325 0.71875 0.09375 7.30848 0.069908 11.69953-9.269027 6.03125-14.21875l-73.75-58.65625c-12.869917-1.3786528-13.658552-7.0781475 0.40625 0.59375z" fill="url(#radialGradient10063)"/>
        <path transform="matrix(.809672 .280887 .266851 1.15104 2.327355 -41.1892)" d="m119.0625 65.4375a2.9375 3.5 0 1 1-5.875 0 2.9375 3.5 0 1 1 5.875 0z" fill="url(#radialGradient10065)"/>
        <g transform="matrix(.749609 .184501 -.149539 .753064 33.91717 -6.173438)">
            <path d="m122.62415 60.02886c-0.04033 0.00166-0.14581 0.01028-0.18577 0.01468-0.27242 0.03-0.51523 0.09253-0.72048 0.23532l-3.90625 3.09375c-0.0219 0.0196-0.04188 0.04135-0.0625 0.0625-0.3958 0.40601-0.55388 1.09068-0.375 1.875 0.28515 1.25025 1.33478 2.28125 2.34375 2.28125 0.10393 0 0.18676-0.04182 0.28125-0.0625l4.5625-1.125c1.18481-0.45541 1.78198-1.89186 1.28125-3.4375-0.53823-1.66142-1.96849-2.98897-3.21875-2.9375z"/>
            <path d="m122.61963 60.10514c1.22097 0.03225 2.57962 1.32094 3.10103 2.93044 0.50073 1.54564-0.10792 2.98302-1.29273 3.43843l-6.75555 1.67183v-4.66671l3.92368-3.11999c0.20525-0.14279 0.51231-0.20883 0.78474-0.23883 0.03995-0.00441 0.08098-0.01351 0.12131-0.01517 0.03907-0.00161 0.07813-0.00104 0.11752 0z" fill="url(#radialGradient10067)" opacity=".87000002"/>
            <path d="m121.79014 60.31602-3.57049 2.93867 1.99138 4.11438 4.6676-1.18343c-0.11235 0.03943-0.2308 0.06551-0.35708 0.07942-1.27858 0.14082-2.76638-1.13537-3.32198-2.85038-0.43722-1.3496-0.16749-2.5713 0.59057-3.09866z"/>
            <path d="m120.60787 61.19502-0.15889 0.13065c0.05031-0.04699 0.10273-0.09158 0.15889-0.13065zm-0.15889 0.13065c-0.58212 0.54375-0.76678 1.59714-0.39194 2.7542 0.51749 1.5974 1.9058 2.78648 3.0967 2.65532 0.04053-0.00446 0.07766-0.01398 0.11652-0.02118l-0.59674 0.15183c-1.18323 0.12478-2.55782-1.00499-3.07199-2.52468-0.37221-1.10015-0.18919-2.10246 0.38842-2.62002l0.15889-0.12711c-0.05616 0.03741-0.10863 0.08207-0.15889 0.12711l0.45903-0.39547zm2.82128 5.38834 0.2154-0.05297c-0.06859 0.02407-0.14148 0.03927-0.2154 0.05297z" fill="url(#linearGradient10069)"/>
            <path d="m121.8429 60.27886c1.31676-0.22769 1.03582-0.14208 0 0zm0 0c-0.04389 0.00585-0.0785 0.02627-0.125 0.03125l-4 3.15625c-0.3733 0.40952-0.51797 1.07985-0.34375 1.84375 0.28515 1.25025 1.33478 2.28125 2.34375 2.28125 0.10393 0 0.18676-0.04182 0.28125-0.0625l4.5625-1.125c0.27239-0.14143 0.40255-0.19234 0.59375-0.28125-0.99552 0.21719-2.62226 0.17879-3.625-1.53125-0.92592-1.58245-1.00138-3.46132 0.15625-4.21875 0.06456-0.03522 0.09683-0.06306 0.15625-0.09375zm3.3125 5.84375c0.94914-0.20708 1.24107-0.57708 0 0z" fill="url(#radialGradient10071)"/>
        </g>
    </g>
    <g fill="#fff">
        <g fill-opacity=".75688076">
            <path d="m148.68161 70.410906v-2.794709 2.794709z"/>
            <path d="m181.29488-142.14159v-2.79471 2.79471z"/>
            <path d="m46.024007 89.450216v-2.794709 2.794709z"/>
        </g>
        <rect x="51.157127" y="75.235924" width="1" height="0" opacity=".57786889"/>
    </g>
    <g transform="matrix(.960176 0 0 .960176 1.880318 5.8102)">
        <path transform="matrix(1.606336,0,0,1.338798,-43.43367,-23.92013)" d="m73.494908 71.608231a1.6130873 1.6351844 0 1 1-3.226175 0 1.6130873 1.6351844 0 1 1 3.226175 0z" fill="url(#radialGradient10073)"/>
        <g transform="matrix(1.163613 .2864 -.232128 1.168977 -41.02318 -65.74521)">
            <path d="m122.62415 60.02886c-0.04033 0.00166-0.14581 0.01028-0.18577 0.01468-0.27242 0.03-0.51523 0.09253-0.72048 0.23532l-3.90625 3.09375c-0.0219 0.0196-0.04188 0.04135-0.0625 0.0625-0.3958 0.40601-0.55388 1.09068-0.375 1.875 0.28515 1.25025 1.33478 2.28125 2.34375 2.28125 0.10393 0 0.18676-0.04182 0.28125-0.0625l4.5625-1.125c1.18481-0.45541 1.78198-1.89186 1.28125-3.4375-0.53823-1.66142-1.96849-2.98897-3.21875-2.9375z"/>
            <path d="m122.61963 60.10514c1.22097 0.03225 2.57962 1.32094 3.10103 2.93044 0.50073 1.54564-0.10792 2.98302-1.29273 3.43843l-6.75555 1.67183v-4.66671l3.92368-3.11999c0.20525-0.14279 0.51231-0.20883 0.78474-0.23883 0.03995-0.00441 0.08098-0.01351 0.12131-0.01517 0.03907-0.00161 0.07813-0.00104 0.11752 0z" fill="url(#radialGradient10067)" opacity=".87000002"/>
            <path d="m121.79014 60.31602-3.57049 2.93867 1.99138 4.11438 4.6676-1.18343c-0.11235 0.03943-0.2308 0.06551-0.35708 0.07942-1.27858 0.14082-2.76638-1.13537-3.32198-2.85038-0.43722-1.3496-0.16749-2.5713 0.59057-3.09866z"/>
            <path d="m120.60787 61.19502-0.15889 0.13065c0.05031-0.04699 0.10273-0.09158 0.15889-0.13065zm-0.15889 0.13065c-0.58212 0.54375-0.76678 1.59714-0.39194 2.7542 0.51749 1.5974 1.9058 2.78648 3.0967 2.65532 0.04053-0.00446 0.07766-0.01398 0.11652-0.02118l-0.59674 0.15183c-1.18323 0.12478-2.55782-1.00499-3.07199-2.52468-0.37221-1.10015-0.18919-2.10246 0.38842-2.62002l0.15889-0.12711c-0.05616 0.03741-0.10863 0.08207-0.15889 0.12711l0.45903-0.39547zm2.82128 5.38834 0.2154-0.05297c-0.06859 0.02407-0.14148 0.03927-0.2154 0.05297z" fill="url(#linearGradient10069)"/>
            <path d="m121.8429 60.27886c1.31676-0.22769 1.03582-0.14208 0 0zm0 0c-0.04389 0.00585-0.0785 0.02627-0.125 0.03125l-4 3.15625c-0.3733 0.40952-0.51797 1.07985-0.34375 1.84375 0.28515 1.25025 1.33478 2.28125 2.34375 2.28125 0.10393 0 0.18676-0.04182 0.28125-0.0625l4.5625-1.125c0.27239-0.14143 0.40255-0.19234 0.59375-0.28125-0.99552 0.21719-2.62226 0.17879-3.625-1.53125-0.92592-1.58245-1.00138-3.46132 0.15625-4.21875 0.06456-0.03522 0.09683-0.06306 0.15625-0.09375zm3.3125 5.84375c0.94914-0.20708 1.24107-0.57708 0 0z" fill="url(#radialGradient10071)"/>
        </g>
        <g>
            <path d="m85.40625 40.65625c0.570242 2.342222 0.871859 4.859355 0.84375 7.46875-0.137823 12.793827-8.061667 23.1875-17.6875 23.1875-0.300578 0-0.578027-0.010974-0.875-0.03125-0.256826-0.183764-0.527039-0.391337-0.78125-0.59375-3.36539-2.679678-5.996634-6.625068-7.75-11.09375h-4.125c1.736735 3.827509 4.152776 7.195883 7.125 9.5625 0.689842 0.549278 1.3899 0.995919 2.09375 1.40625l0.28125 0.1875c0.806006 0.446936 1.624726 0.785552 2.4375 1.0625l0.53125 0.15625 0.125 0.0625 0.5625 0.25c0.766108 0.313063 1.538341 0.539771 2.34375 0.71875l0.34375 0.0625c0.777869 0.144523 1.596686 0.25 2.40625 0.25 9.625833 3e-6 17.549672-10.393671 17.6875-23.1875 0.036248-3.364963-0.49842-6.587353-1.4375-9.46875-0.509041-0.621863-3.87725-0.805877-4.125 0z"/>
            <path transform="matrix(.596032 0 .07227823 .552206 30.35284 19.51436)" d="m94.03125 42.515625a1.96875 2.984375 0 1 1-3.9375 0 1.96875 2.984375 0 1 1 3.9375 0z" fill="url(#radialGradient10081)" stroke="#8a8a8a" stroke-dashoffset="4" stroke-linecap="round" stroke-linejoin="round" stroke-width=".2"/>
            <path transform="matrix(2.976524 -.546624 .285376 2.039351 -85.96056 -106.9435)" d="m41.713657 121.95814a4.9659114 1.5725386 0 1 1-9.931823 0 4.9659114 1.5725386 0 1 1 9.931823 0z" fill="url(#radialGradient10083)" opacity=".49590167"/>
            <path transform="matrix(-2.976524 -.546624 -.285376 2.039351 230.5908 -105.7626)" d="m41.713657 121.95814a4.9659114 1.5725386 0 1 1-9.931823 0 4.9659114 1.5725386 0 1 1 9.931823 0z" fill="url(#radialGradient10083)" opacity=".49590167"/>
            <path d="m69.791543 72.346581c1.138554-0.456148 2.605676-0.460515 4.410893 0 0.266939 0.109375 0.425431 0.189742 0.425431 0.425431v44.240178c0 0.23569-0.189742 0.42543-0.425431 0.42543h-4.410893c-0.235689 0-0.425431-0.18974-0.425431-0.42543v-44.240178c0-0.235689 0.232711-0.347306 0.425431-0.425431z" fill="url(#linearGradient10087)"/>
            <rect x="67.988029" y="110.91685" width="8.0179071" height="8.7983522" rx="1.8250477" ry="1.8250479"/>
            <rect x="68.494843" y="111.52327" width="6.8960838" height="7.7033844" rx="1.2766114" ry="1.2443508" fill="url(#linearGradient10089)" opacity=".47950816"/>
            <rect transform="matrix(.866026 -.5 .5 .866026 0 0)" x="17.926571" y="108.96725" width="5.2617474" height="41.673038" fill="url(#linearGradient10091)"/>
            <rect transform="matrix(.866026 -.5 .5 .866026 0 0)" x="16.655664" y="143.55989" width="8.0179024" height="11.024617" rx="1.8250505" ry="1.8250504"/>
            <rect transform="matrix(.866026 -.5 .5 .866026 0 0)" x="17.162485" y="144.29451" width="6.89608" height="9.4472322" rx="1.2766131" ry="1.2443521" fill="url(#linearGradient10093)" opacity=".47950816"/>
            <rect transform="matrix(-.866026 -.5 -.5 .866026 0 0)" x="-106.52976" y="36.682716" width="5.2617474" height="41.673038" fill="url(#linearGradient10095)"/>
            <rect transform="matrix(-.866026 -.5 -.5 .866026 0 0)" x="-107.86619" y="70.866051" width="8.0179024" height="11.024617" rx="1.8250517" ry="1.8250515"/>
            <rect transform="matrix(-.866026 -.5 -.5 .866026 0 0)" x="-107.35938" y="71.600655" width="6.89608" height="9.4472322" rx="1.2766137" ry="1.2443531" fill="url(#linearGradient10097)" opacity=".47950816"/>
            <path d="m70.766374 99.181684c-0.065409 0.016716-0.138604 0.050728-0.201071 0.080428-0.642886 0.334813-1.125993 1.339608-1.125993 2.533488v9.85245c-0.151481 0.06656-0.321088 0.17412-0.442356 0.2815-0.018242 0.01694-0.063038 0.06265-0.080428 0.08042-0.016951 0.01819-0.06438 0.06146-0.080429 0.08044-0.023376 0.02901-0.059208 0.08997-0.080428 0.12063-0.034125 0.05198-0.093021 0.14503-0.120641 0.20108-0.036765 0.0795-0.057806 0.1954-0.080429 0.28149-0.026341 0.11178-0.040214 0.24216-0.040214 0.36193v4.62463c0 0.17301 0.026843 0.36782 0.080428 0.52277 0.022053 0.05894 0.051465 0.1458 0.080428 0.20107 0.096908 0.17432 0.246452 0.35744 0.402141 0.48257 0.099256 0.07595 0.245403 0.14988 0.361928 0.20107 0.188841 0.0776 0.424955 0.12064 0.643424 0.12064h0.281499c0.058262 0.04416 0.139256 0.08846 0.20107 0.12065 0.137424 0.06534 0.29216 0.12064 0.442356 0.12064h1.849847c0.232122 0 0.445335-0.09116 0.643426-0.24129h0.321713c0.150197 0 0.30493-0.00234 0.442354-0.0402 0.160721-0.04853 0.348623-0.14857 0.482569-0.24129 0.0607-0.0442 0.147613-0.10876 0.20107-0.16086 0.052167-0.05333 0.116958-0.14081 0.160857-0.20107 0.070727-0.10221 0.156965-0.24408 0.201071-0.36193 0.053585-0.15495 0.080428-0.34976 0.080428-0.52277v-4.62463c0-0.11977-0.013873-0.25015-0.040215-0.36193-0.080793-0.3075-0.284495-0.6032-0.522782-0.80428-0.019462-0.01564-0.060195-0.06569-0.080429-0.08042-0.092732-0.06419-0.215488-0.11721-0.321712-0.16086v-9.85245c0-1.12499-0.419856-2.06622-1.005352-2.45306-0.169275-0.103823-0.371837-0.160856-0.562998-0.160856h-1.849847c-0.081927 0-0.162794-0.020049-0.241285 0z" fill="url(#linearGradient10099)" opacity=".77459011"/>
            <path transform="matrix(1.487028,0,0,1.286851,-23.77696,-37.14954)" d="m68.364044 122.04091a3.7244337 3.1450772 0 1 1-7.448867 0 3.7244337 3.1450772 0 1 1 7.448867 0z" fill="url(#radialGradient10101)" opacity=".49590167"/>
        </g>
        <g fill-rule="evenodd">
            <path d="m70.984688 83.364371 0.924924 5.127297 2.194601-3.785491-0.746894-1.221163-1.045566 0.583104-1.327065-0.703747z" fill="#c2c2c2"/>
            <path d="m70.984688 83.364371 0.924924 5.127297 2.194601-3.785491-0.746894-1.221163-1.045566 0.583104-1.327065-0.703747z" fill="url(#radialGradient10103)"/>
            <path d="m70.984688 83.364371 0.924924 5.127297 2.194601-3.785491-0.746894-1.221163-1.045566 0.583104-1.327065-0.703747z" fill="url(#radialGradient10105)"/>
            <path d="m70.984688 83.364371 0.924924 5.127297 2.194601-3.785491-0.746894-1.221163-1.045566 0.583104-1.327065-0.703747z" fill="url(#radialGradient10107)" opacity=".81999972"/>
        </g>
        <path transform="matrix(1.033373,0,0,1.033373,-1.449563,-4.240534)" d="m85.03125 47.8125c0.196614 1.09183 0.355089 2.197348 0.34375 3.25-0.052611 4.883865-1.369642 9.321996-3.5 12.9375h4.71875c1.403806-3.284987 2.237023-7.082146 2.28125-11.1875 0.01801-1.671862 0.044659-3.378765-0.0625-5h-3.78125z" fill="url(#radialGradient11015)" opacity=".86000001"/>
    </g>
</svg>
